<?xml version="1.0" encoding="utf-8"?>
<!-- Generator: Adobe Illustrator 23.1.0, SVG Export Plug-In . SVG Version: 6.00 Build 0)  -->
<svg version="1.1" xmlns="http://www.w3.org/2000/svg" xmlns:xlink="http://www.w3.org/1999/xlink" x="0px" y="0px"
	 viewBox="0 0 2279 695.86" style="enable-background:new 0 0 2279 695.86;" xml:space="preserve">
<style type="text/css">
	.st0{fill:#F5B62A;}
	.st1{fill:#383938;}
</style>
<g id="Layer_1_copy">
</g>
<g id="Layer_1_copy_2">
</g>
<g id="Layer_1_copy_3">
	<path class="st0" d="M2107.71,660.65H973.38c-68.1,0-123.31-55.21-123.31-123.31V155.66c0-68.1,55.21-123.31,123.31-123.31h1134.33
		c68.1,0,123.31,55.21,123.31,123.31v381.69C2231.02,605.45,2175.81,660.65,2107.71,660.65z"/>
	<g>
		<g>
			<path class="st1" d="M970,354.13c0-83.7,49.49-142.49,116.97-142.49c41.09,0,73.48,19.47,94.18,54.51l-44.69,51.78
				c-12.3-20.25-26.99-31.93-45.89-31.93c-29.39,0-49.19,26.47-49.19,68.13c0,41.66,19.79,68.13,49.19,68.13
				c18.9,0,33.59-11.68,45.89-31.93l44.69,51.78c-20.7,35.04-53.09,54.51-94.18,54.51C1019.49,496.62,970,437.83,970,354.13z"/>
			<path class="st1" d="M1201.54,217.87h70.78v201.28h94.78v71.25h-165.56V217.87z"/>
			<path class="st1" d="M1532.65,442.9h-79.78l-14.1,47.5h-71.98l91.78-272.53h69.58l91.78,272.53h-73.18L1532.65,442.9z
				 M1513.16,376.71l-20.39-68.52l-20.39,68.52H1513.16z"/>
			<path class="st1" d="M1618.14,468.59l22.79-66.96c19.79,15.18,46.19,24.92,69.28,24.92c20.09,0,27.29-5.45,27.29-14.79
				c0-34.26-116.07-6.62-116.07-108.23c0-50.61,32.69-91.88,97.77-91.88c28.19,0,57.29,7.79,79.18,23.75l-21.29,66.57
				c-20.69-13.63-40.19-20.24-58.48-20.24c-20.7,0-27.29,7.79-27.29,17.13c0,32.7,116.07,5.45,116.07,105.9
				c0,49.83-32.69,91.88-97.77,91.88C1674.52,496.62,1639.13,485.33,1618.14,468.59z"/>
			<path class="st1" d="M1815.19,468.59l22.79-66.96c19.79,15.18,46.19,24.92,69.28,24.92c20.09,0,27.29-5.45,27.29-14.79
				c0-34.26-116.07-6.62-116.07-108.23c0-50.61,32.69-91.88,97.77-91.88c28.19,0,57.29,7.79,79.18,23.75l-21.29,66.57
				c-20.69-13.63-40.19-20.24-58.48-20.24c-20.7,0-27.29,7.79-27.29,17.13c0,32.7,116.07,5.45,116.07,105.9
				c0,49.83-32.69,91.88-97.77,91.88C1871.57,496.62,1836.18,485.33,1815.19,468.59z"/>
			<path class="st1" d="M2199.99,421.09v69.3h-174.55V217.87h170.65v69.3h-101.07v31.92h88.78v66.19h-88.78v35.82H2199.99z"/>
		</g>
	</g>
	<path class="st1" d="M695.99,654.96H255.03c-85.09,0-154.08-68.98-154.08-154.08V180.73c0-85.09,68.98-154.08,154.08-154.08h440.96
		c85.09,0,154.08,68.98,154.08,154.08v320.15C850.07,585.98,781.09,654.96,695.99,654.96z"/>
	<path class="st0" d="M232.36,200.86h44.09c10.85,0,19.65,8.8,19.65,19.65v179.18c0,9,7.3,16.3,16.3,16.3h75.71
		c10.85,0,19.65,8.8,19.65,19.65v36.84c0,10.85-8.8,19.65-19.65,19.65H232.36c-10.85,0-19.65-8.8-19.65-19.65V220.51
		C212.71,209.66,221.51,200.86,232.36,200.86z"/>
	<path class="st0" d="M608.66,441.38h-93.99l-12.88,39.38c-2.22,6.79-8.55,11.38-15.7,11.38H437c-11.51,0-19.49-11.48-15.48-22.26
		l95.87-258.25c2.4-6.47,8.58-10.77,15.48-10.77h59.01c6.9,0,13.08,4.3,15.48,10.77l95.87,258.25c4.01,10.79-3.98,22.26-15.48,22.26
		h-50.5c-7.14,0-13.48-4.59-15.7-11.38L608.66,441.38z M583.9,365.16l-18.27-55.68c-1.26-3.83-6.67-3.83-7.93,0l-18.27,55.68
		c-0.89,2.7,1.12,5.47,3.96,5.47h36.54C582.78,370.64,584.79,367.86,583.9,365.16z"/>
	<g>
		<path id="XMLID_48_" class="st0" d="M867.31,326.08c-8-8-20.99-8-28.99,0c-8,8.01-8,20.99,0,28.99c8.01,8,20.99,8,28.99,0
			C875.32,347.07,875.32,334.09,867.31,326.08z"/>
		<path id="XMLID_47_" class="st0" d="M916.06,340.58c0-16.89-6.58-32.78-18.53-44.71c-4.69-4.69-12.28-4.69-16.97,0
			c-4.69,4.69-4.69,12.28,0,16.97c7.41,7.4,11.5,17.26,11.5,27.75c0,10.49-4.08,20.34-11.5,27.75c-2.34,2.35-3.51,5.42-3.51,8.49
			c0,3.08,1.17,6.14,3.51,8.48c4.68,4.69,12.28,4.69,16.97,0C909.49,373.36,916.06,357.47,916.06,340.58z"/>
		<path id="XMLID_46_" class="st0" d="M955.57,340.58c0-27.45-10.69-53.25-30.1-72.66c-4.69-4.68-12.28-4.68-16.97,0
			c-4.69,4.69-4.69,12.29,0,16.97c14.88,14.87,23.07,34.65,23.07,55.69c0,21.03-8.19,40.81-23.07,55.68
			c-2.34,2.34-3.51,5.42-3.51,8.48c0,3.08,1.17,6.14,3.51,8.49c4.68,4.68,12.28,4.68,16.97,0
			C944.89,393.82,955.57,368.03,955.57,340.58z"/>
	</g>
	<g>
		<path id="XMLID_45_" class="st0" d="M835.25,355.07c8,8,20.99,8,28.99,0c8-8.01,8-20.99,0-28.99c-8.01-8-20.99-8-28.99,0
			C827.24,334.08,827.24,347.06,835.25,355.07z"/>
		<path id="XMLID_42_" class="st0" d="M786.5,340.57c0,16.89,6.58,32.78,18.53,44.71c4.69,4.69,12.28,4.69,16.97,0
			c4.69-4.69,4.69-12.28,0-16.97c-7.41-7.4-11.5-17.26-11.5-27.75c0-10.49,4.08-20.34,11.5-27.75c2.34-2.35,3.51-5.42,3.51-8.49
			c0-3.08-1.17-6.14-3.51-8.48c-4.68-4.69-12.28-4.69-16.97,0C793.08,307.79,786.5,323.68,786.5,340.57z"/>
		<path id="XMLID_41_" class="st0" d="M746.99,340.57c0,27.45,10.69,53.25,30.1,72.66c4.69,4.68,12.28,4.68,16.97,0
			c4.69-4.69,4.69-12.29,0-16.97c-14.88-14.87-23.07-34.65-23.07-55.69c0-21.03,8.19-40.81,23.07-55.68
			c2.34-2.34,3.51-5.42,3.51-8.48c0-3.08-1.17-6.14-3.51-8.49c-4.68-4.68-12.28-4.68-16.97,0
			C757.68,287.33,746.99,313.12,746.99,340.57z"/>
	</g>
	<g>
		<g>
			<path class="st1" d="M864.01,355.32c-3.77,3.77-8.64,5.76-13.58,5.98v-40.96c4.94,0.22,9.81,2.21,13.58,5.98
				C872.01,334.33,872.01,347.31,864.01,355.32z"/>
			<path id="XMLID_16_" class="st1" d="M912.75,340.82c0-16.89-6.58-32.78-18.53-44.71c-4.69-4.69-12.28-4.69-16.97,0
				c-4.69,4.69-4.69,12.28,0,16.97c7.41,7.4,11.5,17.26,11.5,27.75c0,10.49-4.08,20.34-11.5,27.75c-2.34,2.35-3.51,5.42-3.51,8.49
				c0,3.08,1.17,6.14,3.51,8.48c4.68,4.69,12.28,4.69,16.97,0C906.17,373.59,912.75,357.7,912.75,340.82z"/>
			<path id="XMLID_15_" class="st1" d="M952.26,340.82c0-27.45-10.69-53.25-30.1-72.66c-4.69-4.68-12.28-4.68-16.97,0
				c-4.69,4.69-4.69,12.29,0,16.97c14.88,14.87,23.07,34.65,23.07,55.69c0,21.03-8.19,40.81-23.07,55.68
				c-2.34,2.34-3.51,5.42-3.51,8.48c0,3.08,1.17,6.14,3.51,8.49c4.68,4.68,12.28,4.68,16.97,0
				C941.57,394.06,952.26,368.27,952.26,340.82z"/>
		</g>
	</g>
</g>
<g id="Layer_1">
</g>
<g id="Layer_2">
</g>
</svg>
